<svg width="12" height="18" viewBox="0 0 12 18" fill="none" xmlns="http://www.w3.org/2000/svg">
<path opacity="0.5" d="M11.3563 9.83386L10.3401 8.90373C10.3659 8.43957 10.3795 8.06262 10.3795 7.85269C10.3795 4.72038 8.87668 1.82234 6.35684 0.100556C6.26061 0.034715 6.14661 0 6.02558 0C5.90629 0 5.78874 0.0357291 5.69416 0.100478C3.17432 1.82226 1.67021 4.7203 1.67021 7.85269C1.67021 8.06254 1.68087 8.43957 1.70668 8.90366L0.670105 9.83386C0.302526 10.1685 0 10.8175 0 11.3113V14.9305C0 15.4073 0.317053 15.5891 0.603789 15.5891C0.603868 15.5891 0.604579 15.5891 0.604579 15.5891C0.7485 15.5891 0.898026 15.5554 1.04834 15.4578L3.01161 14.1895C3.08084 14.1445 3.14739 14.0938 3.21079 14.0331L5.41713 17.6141C5.568 17.8587 5.79 18 6.02629 18C6.26266 18 6.48466 17.8602 6.63545 17.6156L8.84179 14.0369C8.90518 14.0976 8.97158 14.1523 9.04082 14.1973L11.004 15.4735C11.1542 15.5712 11.2918 15.6207 11.4357 15.6207C11.7225 15.6207 12 15.4073 12 14.9304V11.3112C12.0002 10.8175 11.7239 10.1685 11.3563 9.83386Z" fill="white"/>
</svg>
